<svg xmlns="http://www.w3.org/2000/svg" xmlns:xlink="http://www.w3.org/1999/xlink" width="579" height="566" viewBox="0 0 579 566">
  <defs>
    <filter id="Rectangle_8" x="0" y="0" width="579" height="566" filterUnits="userSpaceOnUse">
      <feOffset dx="-60" dy="72" input="SourceAlpha"/>
      <feGaussianBlur stdDeviation="3" result="blur"/>
      <feFlood flood-opacity="0.161"/>
      <feComposite operator="in" in2="blur"/>
      <feComposite in="SourceGraphic"/>
    </filter>
  </defs>
  <g id="Component_9_1" data-name="Component 9 – 1" transform="translate(28)" style="isolation: isolate">
    <g transform="matrix(1, 0, 0, 1, -28, 0)" filter="url(#Rectangle_8)">
      <g id="Rectangle_8-2" data-name="Rectangle 8" transform="translate(69)" fill="#fff" stroke="#f5f5f5" stroke-width="1">
        <rect width="510" height="485" stroke="none"/>
        <rect x="0.5" y="0.5" width="509" height="484" fill="none"/>
      </g>
    </g>
    <g id="Component_8_1" data-name="Component 8 – 1" transform="translate(0 57)">
      <g id="Component_7_1" data-name="Component 7 – 1" transform="translate(0 258)">
        <g id="Ellipse_1" data-name="Ellipse 1" fill="#10b140" stroke="#f5f5f5" stroke-width="1">
          <circle cx="44" cy="44" r="44" stroke="none"/>
          <circle cx="44" cy="44" r="43.5" fill="none"/>
        </g>
        <g id="Component_6_1" data-name="Component 6 – 1" transform="translate(19 26)">
          <line id="Line_1" data-name="Line 1" x2="17" y2="21" transform="translate(0 15)" fill="none" stroke="#f5f5f5" stroke-width="7"/>
          <line id="Line_2" data-name="Line 2" x1="34" y2="36" transform="translate(16)" fill="none" stroke="#f5f5f5" stroke-width="7"/>
        </g>
        <g id="Rectangle_9" data-name="Rectangle 9" transform="translate(120 26)" fill="#7ad6b1" stroke="#f5f5f5" stroke-width="1">
          <rect width="372" height="18" rx="9" stroke="none"/>
          <rect x="0.5" y="0.5" width="371" height="17" rx="8.5" fill="none"/>
        </g>
        <g id="Rectangle_10" data-name="Rectangle 10" transform="translate(120 70)" fill="#7ad6b1" stroke="#f5f5f5" stroke-width="1">
          <rect width="83" height="18" rx="9" stroke="none"/>
          <rect x="0.5" y="0.5" width="82" height="17" rx="8.5" fill="none"/>
        </g>
        <g id="Rectangle_11" data-name="Rectangle 11" transform="translate(449 70)" fill="#7ad6b1" stroke="#f5f5f5" stroke-width="1">
          <rect width="43" height="18" rx="9" stroke="none"/>
          <rect x="0.5" y="0.5" width="42" height="17" rx="8.5" fill="none"/>
        </g>
      </g>
      <g id="Component_7_1-2" data-name="Component 7 – 1" transform="translate(0 129)">
        <g id="Ellipse_1-2" data-name="Ellipse 1" fill="#10b140" stroke="#f5f5f5" stroke-width="1">
          <circle cx="44" cy="44" r="44" stroke="none"/>
          <circle cx="44" cy="44" r="43.5" fill="none"/>
        </g>
        <g id="Ellipse_3" data-name="Ellipse 3" fill="#10b140" stroke="#f5f5f5" stroke-width="1">
          <circle cx="44" cy="44" r="44" stroke="none"/>
          <circle cx="44" cy="44" r="43.5" fill="none"/>
        </g>
        <g id="Component_6_1-2" data-name="Component 6 – 1" transform="translate(19 26)">
          <line id="Line_1-2" data-name="Line 1" x2="17" y2="21" transform="translate(0 15)" fill="none" stroke="#f5f5f5" stroke-width="7"/>
          <line id="Line_2-2" data-name="Line 2" x1="34" y2="36" transform="translate(16)" fill="none" stroke="#f5f5f5" stroke-width="7"/>
        </g>
        <g id="Rectangle_9-2" data-name="Rectangle 9" transform="translate(120 26)" fill="#f1f97e" stroke="#f5f5f5" stroke-width="1">
          <rect width="372" height="18" rx="9" stroke="none"/>
          <rect x="0.5" y="0.5" width="371" height="17" rx="8.5" fill="none"/>
        </g>
        <g id="Rectangle_10-2" data-name="Rectangle 10" transform="translate(120 70)" fill="#f1f97e" stroke="#f5f5f5" stroke-width="1">
          <rect width="83" height="18" rx="9" stroke="none"/>
          <rect x="0.5" y="0.5" width="82" height="17" rx="8.5" fill="none"/>
        </g>
        <g id="Rectangle_11-2" data-name="Rectangle 11" transform="translate(449 70)" fill="#f1f97e" stroke="#f5f5f5" stroke-width="1">
          <rect width="43" height="18" rx="9" stroke="none"/>
          <rect x="0.5" y="0.5" width="42" height="17" rx="8.5" fill="none"/>
        </g>
      </g>
      <g id="Component_7_1-3" data-name="Component 7 – 1">
        <g id="Ellipse_1-3" data-name="Ellipse 1" fill="#10b140" stroke="#f5f5f5" stroke-width="1">
          <circle cx="44" cy="44" r="44" stroke="none"/>
          <circle cx="44" cy="44" r="43.5" fill="none"/>
        </g>
        <g id="Component_6_1-3" data-name="Component 6 – 1" transform="translate(19 26)">
          <line id="Line_1-3" data-name="Line 1" x2="17" y2="21" transform="translate(0 15)" fill="none" stroke="#f5f5f5" stroke-width="7"/>
          <line id="Line_2-3" data-name="Line 2" x1="34" y2="36" transform="translate(16)" fill="none" stroke="#f5f5f5" stroke-width="7"/>
        </g>
        <g id="Rectangle_9-3" data-name="Rectangle 9" transform="translate(120 26)" fill="#f4acff" stroke="#f5f5f5" stroke-width="1">
          <rect width="372" height="18" rx="9" stroke="none"/>
          <rect x="0.5" y="0.5" width="371" height="17" rx="8.5" fill="none"/>
        </g>
        <g id="Rectangle_10-3" data-name="Rectangle 10" transform="translate(120 70)" fill="#f4acff" stroke="#f5f5f5" stroke-width="1">
          <rect width="83" height="18" rx="9" stroke="none"/>
          <rect x="0.5" y="0.5" width="82" height="17" rx="8.5" fill="none"/>
        </g>
        <g id="Rectangle_11-3" data-name="Rectangle 11" transform="translate(449 70)" fill="#f4acff" stroke="#f5f5f5" stroke-width="1">
          <rect width="43" height="18" rx="9" stroke="none"/>
          <rect x="0.5" y="0.5" width="42" height="17" rx="8.5" fill="none"/>
        </g>
      </g>
    </g>
  </g>
</svg>
